/* XPM */
static char *b804b44f4ffe44358628fb6f2d781c1bzaTIfBZLYgM6FNVS[] = {
/* columns rows colors chars-per-pixel */
"64 64 256 2 ",
"   c #010101",
".  c #0A0404",
"X  c #000A01",
"o  c #0A0805",
"O  c #03030B",
"+  c #0B020B",
"@  c #090B0C",
"#  c #130205",
"$  c #170807",
"%  c #13030B",
"&  c #1B040D",
"*  c #021C00",
"=  c #171408",
"-  c #020312",
";  c #0C0313",
":  c #030B13",
">  c #060619",
",  c #030D1B",
"<  c #130314",
"1  c #1A0414",
"2  c #170818",
"3  c #08151A",
"4  c #171418",
"5  c #250406",
"6  c #2E120F",
"7  c #230514",
"8  c #280919",
"9  c #36091B",
"0  c #0C231C",
"q  c #342A15",
"w  c #050425",
"e  c #1C0323",
"r  c #180825",
"t  c #051527",
"y  c #181726",
"u  c #040337",
"i  c #180837",
"p  c #051A36",
"a  c #131936",
"s  c #260827",
"d  c #380B25",
"f  c #281429",
"g  c #371529",
"h  c #290837",
"j  c #360B39",
"k  c #291735",
"l  c #381636",
"z  c #12292F",
"x  c #08223B",
"c  c #1A2938",
"v  c #3B342B",
"b  c #3A372C",
"n  c #312932",
"m  c #4C090E",
"M  c #6A1D00",
"N  c #4C3513",
"B  c #6C2E0D",
"V  c #460D27",
"C  c #520928",
"Z  c #47152C",
"A  c #59152A",
"S  c #450938",
"D  c #56003A",
"F  c #471537",
"G  c #571535",
"H  c #65173A",
"J  c #711330",
"K  c #42372B",
"L  c #4B3533",
"P  c #6A3B2F",
"I  c #534F00",
"U  c #6D4E10",
"Y  c #53482E",
"T  c #69502D",
"R  c #6F652E",
"E  c #090A49",
"W  c #270946",
"Q  c #360947",
"!  c #391847",
"~  c #2B0F51",
"^  c #3A1759",
"/  c #032945",
"(  c #182A45",
")  c #1A354A",
"_  c #0B2B55",
"`  c #033658",
"'  c #183556",
"]  c #28284A",
"[  c #362747",
"{  c #29314B",
"}  c #3A3649",
"|  c #2A2857",
" . c #273958",
".. c #353959",
"X. c #130B6C",
"o. c #2E0B6B",
"O. c #371468",
"+. c #381379",
"@. c #073969",
"#. c #303566",
"$. c #450846",
"%. c #471749",
"&. c #571849",
"*. c #510754",
"=. c #491856",
"-. c #591959",
";. c #671949",
":. c #7A1B47",
">. c #6A1058",
",. c #781C58",
"<. c #472D4B",
"1. c #5B2256",
"2. c #413B54",
"3. c #712754",
"4. c #491566",
"5. c #571766",
"6. c #510C70",
"7. c #6E146E",
"8. c #4E2F6D",
"9. c #592A75",
"0. c #752669",
"q. c #6B306D",
"w. c #762377",
"e. c #2C4750",
"r. c #274659",
"t. c #0D4970",
"y. c #2E4E6F",
"u. c #36456A",
"i. c #2A566A",
"p. c #284B75",
"a. c #37577A",
"s. c #376877",
"d. c #554B44",
"f. c #484A52",
"g. c #6E5155",
"h. c #7C694C",
"j. c #484878",
"k. c #525071",
"l. c #714E74",
"z. c #546876",
"x. c #68686D",
"c. c #861336",
"v. c #882F35",
"b. c #A32423",
"n. c #D82C3A",
"m. c #A16108",
"M. c #8F5534",
"N. c #AA5A33",
"B. c #8A712F",
"V. c #AD742D",
"C. c #D1632B",
"Z. c #8D1A50",
"A. c #8C2651",
"S. c #982558",
"D. c #AB2C58",
"F. c #901075",
"G. c #AC1268",
"H. c #912673",
"J. c #A7286A",
"K. c #B22D73",
"L. c #DB2464",
"P. c #CD306D",
"I. c #954E51",
"U. c #B87449",
"Y. c #90486F",
"T. c #B84F74",
"R. c #AB6C61",
"E. c #D15C51",
"W. c #CA536F",
"Q. c #58B370",
"!. c #A1921A",
"~. c #A98D35",
"^. c #DCA325",
"/. c #FAD136",
"(. c #B08D54",
"). c #CFAA49",
"_. c #CE976E",
"`. c #D9A861",
"'. c #EAC95F",
"]. c #151191",
"[. c #321589",
"{. c #1A209C",
"}. c #46168B",
"|. c #591788",
" X c #521092",
".X c #651889",
"XX c #6F1192",
"oX c #4E2E8F",
"OX c #72288F",
"+X c #4C1CAE",
"@X c #6A0AA9",
"#X c #7624B3",
"$X c #11538B",
"%X c #35578C",
"&X c #3B6586",
"*X c #3A738E",
"=X c #386997",
"-X c #1455A9",
";X c #386EA8",
":X c #4E4E8D",
">X c #6F508E",
",X c #506F93",
"<X c #67778D",
"1X c #5054B0",
"2X c #7353AF",
"3X c #4B72B0",
"4X c #6B6EB0",
"5X c #002AC2",
"6X c #561EC4",
"7X c #6D29CE",
"8X c #346AC3",
"9X c #6058C7",
"0X c #94108B",
"qX c #A80B89",
"wX c #902991",
"eX c #B02E90",
"rX c #BB16AC",
"tX c #902AAE",
"yX c #B02EA9",
"uX c #D2348E",
"iX c #DB2B97",
"pX c #E33785",
"aX c #CE2FAB",
"sX c #A36598",
"dX c #9646B2",
"fX c #B150AD",
"gX c #9073B3",
"hX c #CE4E98",
"jX c #913AC7",
"kX c #9D60C4",
"lX c #3C8AB1",
"zX c #478C93",
"xX c #4D91B1",
"cX c #6397A2",
"vX c #6E89B3",
"bX c #63CBB6",
"nX c #3C88CB",
"mX c #3EA6E1",
"MX c #4C90CE",
"NX c #7194CF",
"BX c #52ADD4",
"VX c #5FA5E8",
"CX c #53AEEC",
"ZX c #62CBDA",
"AX c #6BCEE6",
"SX c #70E5ED",
"DX c #AEB28E",
"FX c #959CB9",
"GX c #97ADBC",
"HX c #ECD7A5",
"JX c #959DCB",
"KX c #A4A2C8",
"LX c #A3B6C6",
"PX c #ADB0D1",
"IX c #A2D6E8",
"UX c #CAE0EF",
/* pixels */
"                                                                        > i     O       O                                       ",
"                                                                          W +.    w +.~   O                                     ",
"                                                                             X~   +.}.W   O                                     ",
"                                      O   O O     .                         O.6.i W     O                                       ",
"                  O O                   O         .                         W  X~ O O < .               > O   .                 ",
"                O O : 3 O   3 3       c   e.c                           O   ;  XO.  2     .           . + + + + .               ",
"                  :     O O     O     z   r.e.            . O         + ;     }.+.  > H G         . + .   O ; + + .             ",
"                :   c i.:   zXs.  @       3 ) 4 @   @ . O               2 .   +.}.  &.:.Z     O O <   h 6.~   e + +             ",
"                3   ) zXz 3 xXzXs.c e.e.  (  .  y 4   ;   s Q   +   s %.o     [.[.$ ;.1 : 1   + + < #   6.4.  s < ; .           ",
"                O O O z 3 y i.@ *Xi.  e.s.=Xa < c c   2   %.5.O & X ,.yX4.$   [.6X! 6 w d +   + + < < %.=.h e s e < +           ",
"                O O O   , O i.) r.xXxX*X&X .e W ~ ) z 3 $ 4 + X %.XXyXyXOXk   ~ 7X7Xl   l % . + 1 < 1 0.-.u Q 1 e < +           ",
"                O O - , t   *Xs.c ZXCXBX;X] W ~ Q { c , 1   5 X w.tXyXyXtXh 4 +X7XOXg > F 1 8 d s s   r -.h e s s %             ",
"                  O - z t   zXBXs.xXMXmXMX%XQ 4.^ | p 4   ~ H.H.OX7XtXyXtXs W #X|.Z h   l 4 q n 3 X &.&.! %.s O     .   & 9     ",
"                  +   , t   zXAXxX%XnXMXnX%XQ 5.5.^ k   =.OXwXeXtX#XtXtX7.=.4.u F ;.V L l $.$.D *.F.aXaXeX7.- V A.V   # o 8     ",
"                .   k k : . ,X3Xk.m.U k.1XoX.X|.4.8.! # OXH.K.yXtXtXtXOXh .Xw.,.J.H.q.&.X.;XxXxXz.h.eXaXyX7.  G D.A   #         ",
"            +   2   w.>.  ,XVXmXPX'.`.).Y.@X@X9.*.oX#.* 3.P.uXyXwXOXtX.X=.4.0.pXpXwXF.7.PXUXSXSXbXQ.(.hXyXwX  < O     & &       ",
"          O   1 g # n s.h VXCXCXUXHXHXHX_.Y.w.6.w..Xo.~ wXG.G.0X*.$.*.*.*.Q >.uXqXwXsXPXUXIXSXSXZXQ.!.W.aXeX  1 7   9 Z .       ",
"          <   ,.1.  c <X.XCXCXMXvX_.'.'.HX'.HXHXgXFXKXKXKXKXKXKXKXKXKXKXKXKXKXgXPXUXAXIXSXIXIXbXcXQ.!.W.rXH.= < 8   1 d .       ",
"        +     &.F s F qXJXCXBX%XxX$Xg.(.^._.vX_.d.cXGXGXGXLXLXLXLXLXLXLXLXLXGX<XFXFXlXIXIX<X| <X<X/ R ~.eX@X5.% > d G   .       ",
"      +   j %.X -.q.0XkXAXxXxXi.xX&X@.t.(.R.$XD.P       w w E ` _ E t._ u E     ,X$X,XBXt.  a.xXxX..  R _.OX6.F > d G % O .     ",
"      +   j $.8 $.q.eXNXlX*Xu z.x.x.e.` f.g.E N.L w c c { { ( y.z. .a.u.) ( y f ,Xu...&X) ( a.*X*Xu.& w B.(.>.1.e , - < + .     ",
"    . + < . % s <.F.gXxX' i.( ..p f...( / f.T M.n   , p a p x ( ' ) / x p t O 5 =X3Xj.) ' w a.,XzXu.$ / b (.Y.*.H.J.G   %   .   ",
"    . < 1 s s 2 w.qXgXi.w > a ] p ..] w p n M.g.]   t t t p x ( / x x p t t O 5 =XnXp.  w 3 h | ^ k 4     ~.(.F.iXK.s   8 7     ",
"    . < < s S > 7.yX4Xt y f.} ] / } 2.e.n > d.a.[   , t t t p ( x p p t t t   5 %X;Xp z.<Xt   f f 3 c <Xu.h.R.qXiXJ.  F g d     ",
"    . % < s &.f >.yX:X  k.x.x.k.[ 2.z.x.z.  b z.[   : O , t t t t t t , : -   5 a.t.j.4XFXk.    O   j.2X:Xx.R.qXeXJ.- D.G   +   ",
"    + + 1 e j f 7.tX,XzX#.E ' z.s a. .O ..zXi.h.<.  @ O : , , w , , , : - O   8 u.` j.:Xj.k.      2 9.#.X.g.U.K.0X0.> S.G   +   ",
"  . . + 1   5 ^ XXdX&XzXu.xX3Xu.d...' p.| zXi. .[   : O : : , , , , , : : :   s ../ j.>X>X8.  , @ @ 8.8.o.d.U.T.0XH.;.Z O 1 .   ",
"  . + # < E X.].XX2Xp.  } ,Xj.k.GXx.u u...  ( r.n #                 .         n ../ [ j.:X!         ! 9.O.g U.T.qXeXJ.F O 1 .   ",
"    ; . i ].].[. X1Xp.  # # 5 :X;X,X9 # $ t ) w f d } } } } 2.2.2.2.2.2.} } } d > t 3 < s     z.z.  + l t J E.T.0XeX>.1 < + .   ",
"  . + . X.].].[. X1X#.r.(   e 3XMX,Xe   3 = r.=XxX,X' #.a.a.&X&X&X&X&X&X&Xj.a.xXlXy.f   3   k.,X,Xf.  o   Z.C.W.0X.X^ j < + .   ",
"      E X.X.o.W oX3X{ l ,     vXIXvXO =   ` =X3XMXSXZX` _ r.r.r.r.r.p.t.( *XSXAXMX3Xp..   y E cX<XE = O ; P C.W.OX|.%.h < + .   ",
"      E X.W F 5 j.=X` %.&   2 l ..} f   I z.3XvX3XvXDX~.u c ( ) ( ) ' a { SXZX4XvX4X,X_ o . #.<X<X| #   G A.N.E.l.+.>.s < + O   ",
"      u X.~ Z m :X;X` W A.V   n z.b   w m.R.=Xs.s.:Xl.!.M.  q , y , z   BXBX8.:Xi.s.,X%Xt   2.| #.}   F uXF.M E.q.{.{.W # ; O   ",
"  O   r X.W 6 C 1X=X .t H.,.  z zXf.  M.U.k.@.3XxXi.@.U.C.- = %   +   h ,Xu.#.a.xX=Xu.a.] f   k f   0.eXaX:.X N.Y.-X8X#.. 2 O   ",
"      r W h 5 XX4Xt.w x &.5 F 0.>.V E N.U._ t.p.p.p./ g.M.e   $   +   k B <.` y.p.p. .| k l ! l l &.3.,.uXS.  m.Y.-X-X|   ;     ",
"      % s k   9.3XlXy.  -.0.9 &.1.X - P M.| p a p p ] k w f           k q n ) p x t ( [ s 2 + l s +   V eXA.  v.Y.].X.&   O     ",
"    . % 1 k   j.MXxXBXxX9.9.c -     f l v ! r.4   r.] L P S   .   .   Z B F  .)   )  .l f f   <   < o d H.G   M.T.5.  s r .     ",
"  . & % & t m >XCXlX( xXlX` ' %.;.g 3 l q S ..s.&Xr.l y l f   + . %   Z A g ! i.&Xi.[ f f f   f -.  & 9 l { ` v.W.w.u W i .     ",
". % & 1 1 0 D 4XCXlX=X=X%Xy.r g H.;.  F 8 y S [ [ S l : l +           s G 6 j S [ %.F : g f   k %.  + 7 f q.aXK.N.&.E ~ < + .   ",
"  + 9 7 2 f *.NXlXt.;X=X@.' 8   X l   g F   4 S F g   l 1.k l F S F g l 1.o X l S F O 4 l 2   k 1.    1 l 3.eXI.N.0.X.W % ; .   ",
"Z 9 7   , g >.NXnX=X;Xp.'   2 : s f t ] <.g X * N B V 5.%.4 9 A J V 7 f 1.0.n       O l k p t 2 F     = <.,.G q V.wXX.r % +     ",
"g g   :.;.C F.NXBX3Xp.  ' p ( x y s @.%Xl g l f g -.wX=.1.7.,.K.K.K.:.%.,.&.H.&.: j %.] E #.' + 2 O . N T I.I.N.^.sX].~ # ;     ",
"    A.P.K.c.uXNXBX=Xw ( ) a %.k =.w.$X%X7.S 8 k 0.0.q.| OX.X.XyXaXiXS.&.;.J ,.H., F ` l.J.u.@.8 %.  4 v K I V.)./.sX].[.7 +     ",
"  J P.H J.L.hXNXmXu.h { c < :.;.W 9.$XoX.X0.;.$.-.1.q.9.#X+X5XtXyXaXK.F s ,.3.W a ' 9.uXP.q.t.f f   o 4 r q B.).^.T.@X.X=.  O   ",
"  c.S.  D.L.fXMXlX=X8.C m c.Z.! W %X%X|.|.%.0.w.wXwXw.4.#X7X5XtXyXeX:.2 s S %.-.! 1.K.P.P.K.:Xc     4 f 0 T N.~.^._.@XXX4.# +   ",
". <     D.L.fXMXxX>XH V J v.1.=.h 1X:X6.|.4.4.7.|.#XOX6.OXtX+X#Xw.j ;.Z e d A.C . J J.H.J.eXOX[ T 6 4 n Y U N.)./._.@X X! # %   ",
"  Z A   S.L.fXMX4XK.K.S.A.q.#.t | 2X8.*. X[.}.6.|.9XOX*. X6.h |.%.O K.H O - H ;.F :.,.OXtXyXwXI.T q   $ = 4 ~.'./.`.@X.X5.4.%   ",
"  8 H . 3 b.fXvXsXhXL.P.K.0.1.m 0.tX7.5. X8X8X^  X9XOX4.}. X. 5.&.  J.Z.7 G   . & 3.<.OXyXdXdXS.N = 6 q q Y B.).^._.XX.X.X4.<   ",
"      7   c.hXhXhXpXL.L.W.Y.3.m :X2XwX7.3XCXCX[. X6.$.$ |.7Xs s j   G S.J.S.  7 1 :.9 q.fXdXjXK.m : q q K Y T B.V.U.7.W =.s . O ",
"    # 7 9 X J.pXpXpXL.n.D.|   / ;XkXfXXXMXCX8X[.}.O.-   4.OXs   e 8 O   S.J.  % & :.9 = eXkX7XhXb.1 = q T B.R ~.V.D.5.w j j 2   ",
"    . 7 9 % J.pXP.L.n.b.v.x 5 t.1XyXH.6.:X1Xo.5 ~ OXH.  Q wX$.  s + 8   G Z.    & :.Z   S.2X@.H.D.P 6 N Y Y T R v.G.w.i h j e   ",
"    # 8 V 7 Z.P.D.Z   c.J t . $X2X7.%.-.@X X  i E wXyX  j OX%.  e % < + 9 8     7 :.V   3.9.p -.P.B m T P Y T k :.K.OXW j h <   ",
"    % 8 V 9 ;.Z.%.t m m   # x ;X:X5 %.j .X4.}. X[.+X7XO.  ^ Q   < + %   s d     7 :.9 t F #.a W P.b.N P T R Y u A.eXXXh %.h o   ",
"    % 9 C V H Z.A.A.b.A.t. .=X3X&.S j s j +.6XO.  o.O.i   ^ h   ;   +   Z F     d H d t 5 =.W - yXn.b.B.R Y n h S.wX6.h Q h .   ",
"    . 7 V C J S.Z.c.S.>X .( %X:Xm f 1   w ~ O   w X.    ; ~ s   +           %   9 H   k ;.:X| j wXP.C.B.Y R k $.H.wX4.h Q s     ",
"      . 7 V A :.,.d g { / ` 8.d 7 + + O   [.E   - u w   O ^ h   ;         .     G G   9 K.2X/ 5   ,.E.U R Y w w.wXOX=.Q h #     ",
"        & 9 C A ;.-.! h -.q.d 8 7 . . w   }.o.      ;   O O.W   ;         #   G J.#     S.q./ # 8 w &.3.Y Q -.wXwX4.j Q s .     ",
"        7 d C G A F &.&.K.Z.  d & & . w   +.o.    O y O                       7 9   7   :.Z.8.` # s i Q *.5.j wXtXQ e h s +     ",
"      . & 8 d V C d 6 9 A 9 8 $ 1 8       i w     + f                               %   f S.q.$X. 2 s i i h O =.5.1 1 s e <     ",
"          . + 7 8 8 9 9 8 % &   & 1               r r   .                       .     .       p.c . 2 e s 2 e     ; + % 1 +     ",
"            . . & 9 8 & % .     & &       .       > -                                     2   ' %X  ; < < +   + ;               ",
"= @ o o o o o o & 6 6 $ o o . . 4 =   o o o o o o . o . o o o o o o o o o o o o o o o o o . @   ( { % < 2 @ @ @ o @ @ o @ @ = = ",
"                                                                                                  p w                           ",
"d.d.d.Y Y K b b v v v b b v v v b b v v v b v v b b b v b v v v K K K K K K K v v v K K K K K K K K K L Y Y d.d.d.d.d.d.d.d.d.d."
};
