/* XPM */
static char *f5834e6c16ac463f9e088dec5746eafeg2A9CM0HeRGEPiHX[] = {
/* columns rows colors chars-per-pixel */
"64 64 256 2 ",
"   c #010102",
".  c #060309",
"X  c #190608",
"o  c #040213",
"O  c #03021B",
"+  c #0A0418",
"@  c #130817",
"#  c #171614",
"$  c #280504",
"%  c #350707",
"&  c #310F13",
"*  c #192A0E",
"=  c #070526",
"-  c #170728",
";  c #1C1727",
":  c #040536",
">  c #1B0832",
",  c #121633",
"<  c #23092B",
"1  c #26162C",
"2  c #39102A",
"3  c #250934",
"4  c #2B0D3B",
"5  c #291437",
"6  c #32143D",
"7  c #37193B",
"8  c #0E2B35",
"9  c #2E2E30",
"0  c #3A2638",
"q  c #4D120B",
"w  c #67150A",
"e  c #552711",
"r  c #692714",
"t  c #742F13",
"y  c #491233",
"u  c #63163D",
"i  c #43263C",
"p  c #48353C",
"a  c #523131",
"s  c #703B2F",
"d  c #25552A",
"f  c #5E5C23",
"g  c #734D33",
"h  c #040847",
"j  c #0C154F",
"k  c #020B53",
"l  c #2A154F",
"z  c #371643",
"x  c #3C1B43",
"c  c #142D4F",
"v  c #392448",
"b  c #2F2C57",
"n  c #051665",
"m  c #0A1671",
"M  c #36146E",
"N  c #0F2974",
"B  c #363370",
"V  c #4F0E48",
"C  c #411E46",
"Z  c #421D4A",
"A  c #72184F",
"S  c #442246",
"D  c #4A2846",
"F  c #452349",
"G  c #4C2A4A",
"H  c #522E44",
"J  c #512F4C",
"K  c #55314C",
"L  c #5A354D",
"P  c #5B3949",
"I  c #493051",
"U  c #563756",
"Y  c #5A3551",
"T  c #5E3A53",
"R  c #643D4B",
"E  c #623D53",
"W  c #663B58",
"Q  c #491373",
"!  c #47346C",
"~  c #6E2D6D",
"^  c #2E5457",
"/  c #2A615D",
"(  c #2E5070",
")  c #55484A",
"_  c #67464C",
"`  c #72514E",
"'  c #6B4453",
"]  c #694556",
"[  c #734B55",
"{  c #754A58",
"}  c #754C5A",
"|  c #795456",
" . c #7C535B",
".. c #62655A",
"X. c #524D70",
"o. c #794B66",
"O. c #7A5465",
"+. c #6D5270",
"@. c #736870",
"#. c #8A3719",
"$. c #A03627",
"%. c #CD3B30",
"&. c #92441E",
"*. c #864629",
"=. c #915532",
"-. c #A85326",
";. c #A65E2B",
":. c #D54F27",
">. c #E35A2B",
",. c #D9662B",
"<. c #D27031",
"1. c #E5732F",
"2. c #9A2964",
"3. c #CE2F6C",
"4. c #865348",
"5. c #84595B",
"6. c #845A5D",
"7. c #936B54",
"8. c #AE764D",
"9. c #865B65",
"0. c #904E71",
"q. c #A6566C",
"w. c #8C6262",
"e. c #896568",
"r. c #926564",
"t. c #956965",
"y. c #976B69",
"u. c #9A6E6A",
"i. c #9D726C",
"p. c #99776E",
"a. c #906C72",
"s. c #997A75",
"d. c #A1756D",
"f. c #AD766B",
"g. c #A6796D",
"h. c #A47972",
"j. c #A97E72",
"k. c #E66960",
"l. c #378000",
"z. c #638625",
"x. c #18896F",
"c. c #618C5B",
"v. c #468E76",
"b. c #B78435",
"n. c #D78634",
"m. c #F2922D",
"M. c #E88834",
"N. c #EA9637",
"B. c #ECA43B",
"V. c #F2AC3C",
"C. c #BC8553",
"Z. c #9D9F70",
"A. c #B28C66",
"S. c #AD8274",
"D. c #A9867A",
"F. c #B58A78",
"G. c #B58B7B",
"H. c #BB927D",
"J. c #CD8F4D",
"K. c #EBAE4A",
"L. c #C7946F",
"P. c #DFAD62",
"I. c #D4A569",
"U. c #F4CD69",
"Y. c #081991",
"T. c #2C1A9F",
"R. c #072687",
"E. c #123093",
"W. c #2C388C",
"Q. c #0734A7",
"!. c #173AA8",
"~. c #4B1690",
"^. c #5017B2",
"/. c #691AAA",
"(. c #5930A0",
"). c #7029B3",
"_. c #11488B",
"`. c #354E90",
"'. c #386C95",
"]. c #1947B3",
"[. c #2C56B0",
"{. c #376CB3",
"}. c #4E558F",
"|. c #4F718F",
" X c #6E6E8C",
".X c #6C5BA2",
"XX c #476AAE",
"oX c #193CD0",
"OX c #6A20C1",
"+X c #135DD8",
"@X c #2655CB",
"#X c #2A65D9",
"$X c #326FD5",
"%X c #2E6DE3",
"&X c #3779E6",
"*X c #6F4FD3",
"=X c #6466E2",
"-X c #A12597",
";X c #CE338F",
":X c #E13983",
">X c #D534B0",
",X c #E138B3",
"<X c #AD4A92",
"1X c #8E7A90",
"2X c #B4678B",
"3X c #965FA3",
"4X c #CD4D99",
"5X c #DE529D",
"6X c #E37395",
"7X c #D348AF",
"8X c #E46FA9",
"9X c #9D2BDD",
"0X c #B032EC",
"qX c #CF38DC",
"wX c #E53BD4",
"eX c #A154DF",
"rX c #DF4FCC",
"tX c #3C84B7",
"yX c #509190",
"uX c #5191AE",
"iX c #619EA7",
"pX c #5ECDAA",
"aX c #398DE2",
"sX c #3D86E9",
"dX c #3A85F2",
"fX c #4B8FCF",
"gX c #6FAFCF",
"hX c #64A2D7",
"jX c #468EEB",
"kX c #4899EB",
"lX c #4798F2",
"zX c #6E8DEB",
"xX c #4CA5F2",
"cX c #51AEF1",
"vX c #59C3F3",
"bX c #6DCCF0",
"nX c #9B969C",
"mX c #A98B86",
"MX c #BD9482",
"NX c #B89687",
"BX c #B4958A",
"VX c #908DA7",
"CX c #C39A86",
"ZX c #C49B87",
"AX c #CF9695",
"SX c #E5999C",
"DX c #C5A18A",
"FX c #CBA28D",
"GX c #CBA794",
"HX c #D2AA94",
"JX c #D6B29B",
"KX c #93C687",
"LX c #98ACD6",
"PX c #CAA4DA",
"IX c #B5CFE4",
"UX c #C8CDE2",
/* pixels */
"; + - - - - - - - - > > > > 3 3 5 5 5 5 5 5 6 6 6 6 6 6 7 7 z z z x x x x x x x x x x x x x x z z z z 7 6 6 6 6 6 6 6 6 5 5 5 3 ",
"; = = - - - - - > > > > 3 3 3 3 4 4 4 4 z z z z z z z z z x x x x Z Z Z Z Z Z Z Z Z Z Z Z Z Z Z Z Z Z x x x x z z z z z z z 4 4 ",
"; = - - - - > > 3 3 3 3 3 4 4 4 4 6 6 6 z z 7 z x x x x C C S S F F F F F F F F F F F F F F F F F F F S Z Z Z C x x x z z z z z ",
"; = - - - > > 3 3 3 4 4 4 4 6 6 6 z z z x x x C C C S S F F S F D D D G G G G G G G G G G G G F F D D F F F S S Z x C x x z z z ",
"; - - > > 3 3 3 4 4 4 6 6 6 6 z z z x x C C S F S F F D D G G G G G G J G G J J K K J J J J J G G G G G D D F F F F x x x b b z ",
"1 - > 3 3 3 3 4 4 4 6 6 z 7 z x x C C S F F F D D G G G G J J K K K K Y K K Y Y Y Y Y Y Y Y K K K K I J J G G I F I b b b b b x ",
"1 > 3 3 4 4 4 4 6 z z z x x C C S S S S D G G G J J K K K L L Y Y T T T T T W W E E E E T T T T T Y Y Y U K I I ! ! ! B B b F v ",
"1 3 3 4 4 4 6 6 7 z x x C C F F S D G G G J K K Y Y Y T T T E E E ] W ] ] ] ) ) ] ] ] ] ] ] ] ' ] W W T T U U U X.`.`.`.`.B ! I ",
"1 3 4 4 6 6 z z x x C S F S F G G G J K K Y Y Y T E E E ] ] { ] ' ] ] [ ` 0.<X<Xo.} } } } | o.o.o.o.} ] ] X.X.}.}.}.{.{.[.`.! I ",
"5 4 6 6 7 7 x x C S F F D G G J K K Y Y E E W E ' ] ] ] } 0.o.o.<X7X4X0.0.>XwX>X<X9.O. .O..X0.+.O.o.o.o.+.+.}.}.XXXX{.{.{.}.X.! ",
"5 4 6 z x x C S S D D G J J K Y Y T W W ] ] 0.0.] { } o.O.9.0.;X,X>X;X>X;X-X2.2.-X<X9.9.<X X9.9.+.9.o.o.+. XXXfXfXfXfX$XXX}.X.U ",
"5 6 7 x C C F F G G G K K Y Y E E W W ' { o.0.2.9.O.6.9. .<X>X,X>X;X-X>X,X>X,XqX9X9XeXeX9X3Xa.3X(. XuXhXfX$XkXkXkXcXcXkX&X{.}.] ",
"7 z x C S S D G G J K Y W E E E ' { } o.9.O.O.0.0.9.9.e.e.4X,XwXwXwXwX,X>XwXqX0X0X0X0X0X0X9X9X9XcXcXxXlX&XxXxXkXxXcXkXsX$X#X{.X.",
"0 x S S D D G J K L T W { W ' { } } 9.;Xq.9.9.<Xq.e.a.a.4X,X,X,X>X>X,X>X>X9X9X0X0X0XqX0X0X9XeXkXxXlX&X%XjXkX&XsXjX&X&X#X@X[.XXX.",
"0 S F D D J K L L T E E ' { { } O.O.9.0.0.9.9.<X;Xu.q.4XrX7X7X7X7XrX7XeXzX%X*X0X0X9XLXLXzXzXzXxXsX%X#XxXxX&X%XjX&XoX].!.].XX}.X.",
"0 D G G K L L T E ' ' ' [ } } O.9.9.9.e.y.y.a.a.a.2XAXSX8XrXrXrXrXwXrX=XdXzXeX9XeXhXvXcXcXcXxXxXxXkXlXlXlX&XjXkXjX@XY.W.`.XX}.+.",
"0 G J K L T T E ' ' { {  . .6.r.9.r.y.q.2X2Xi.p.2X8XSX8X8X5X;X>X;X-X-X^.oX=X=XcXbXvXxXkXxXjXlXjXsXdX%X@X%X%XkXkXsXsX@X[.}.}. XO.",
"0 J K L T E E ' ' [ } 5.6.6.7.t.e.y.u.h.2X4X2X2X4X,X:X:X3.2.2.2.S @. XzXzXLXbXcXlXxXcXcX&X&XxX#XoXoXoX$X&XkXkXsX&X&X&X&XXXXX X| ",
"i K L T E W ] ' { } } 8.7.9.w.e.y.u.h.h.2X5X8X8X8X6X5X3.2.;X,X;X~  X X XiXVXLXLXLXzX+X+X#XlXjX%X&X&X&XlXlXxXjXsXkXkX&X#X@X{. XO.",
"p L T E ' ' [ {  . .w.t.9.e.r.f.i.u.2XD.AX6XSXSXSX6X:X3.3.;X2.y 2 : N N N _._.|.LXUXPX=X&X+X#X&XcXcXcXxXxXcXcXcXcXxXsX@X[. X@.@.",
"p T E ' _ ]  . .6.5.J.K.f.A.L.L.L.I.L.JXU.JXSX6X:X:X3.:X,X3.u y y 5 O X . ; c c n uXIXPX0XeX&X%XsXlXkXxXxXkXcXcXjX#X#X@X}. X X|.",
"p E ' ' [ } | 5.5.w.8.;.f.f.J.K.U.U.U.U.P.k.6Xk.3.3.3.3.2.2.A A 2 y y o @ o o   X   ( IXPX0X=X+X#X@X!.&XsXsXcXvXcXkX#X].[.{.{.'.",
"p ' ' [  . . .6.6.9.9.a.g.h.f.J.N.U.U.U.K.k.k.%.$.#.y X $   u u X y V < + O h : O j + VXIXPXeX=XoXY.!.@XY.kXvXcXcXxXkX$X].[.{.{.",
"H ] [ |  .9.e.e.t.A.I.J.f.j.S.j.L.K.1.:.%.,.,.w @ & X & 2 y u y V A V 3 O = k : O j : - LXIXVX.X(.T.@X#XfXcXcXaX@X@X%X&X[.[.{.{.",
"_ | | | 6.w.r.r.J.K.N.8.S.L.G.G.P.V.>.<.<.,.*.  % $ & % $ X & A 2.A V - o = k : : : j : '.bXVXo.X.! W.@XlXlX$XQ.E.].!.!.].[.XX X",
"g 7.7.w.r.r.t.i.u.-.<.G.G.L.CXI.B.M.,.B.N.%.$.:.-.#.w q $ % y A A <   > : : h k n k : h m hXgXW U I b N @X&X&X%X#X@X!.N E.'. Xa.",
") | 7.7.f.f.i.g.h.j.j.G.H.MXCXP.B.,.n.V.M.,.,.N.V.,.$.q % q q X + @ o : : h k n m m k N n tXgX+.W U I b N Q.].@X].].].R.`.X. X X",
") | 5.7.8.C.I.K.J.L.G.G.L.I.K.K.B.M.N.<.,.,.,.1.-.$.t % q % % @ @ - - = = h n m m n E.].E.`.|.) T T U F l h : h k m R.N ( `.'.'.",
"g 4.7.7.8.8.J.n.J.I.I.L.I.B.N.M.K.M.,.-.#.q #.$.w q $ q q % $ $ & X o o = k n m m !.].@X@X#X].  9 1 i S z - n N n h k N N E._.}.",
"g 7.8.C.J.J.C.C.L.P.K.K.B.N.1.1.1.8.0 -.#.% e #.r t q $ q q $ $ $ l M n m m !.].].#X%X@X@X+XfXLX+.v j = l : ].#X].R.E.R.N B X.@.",
"g 8.8.C.J.K.K.K.K.N.M.N.K.V.M.1.n...: o ; & e 9 *.#.q $ e e % y Q ~.T.T.Y.Y.#X%X#X&XjX%X+XfXIXLXT U b b _.@X#X#X].!.N c c X.@.a.",
"g 8.8.J.n.M.M.N.N.1.:.N.B.B.N.M.C.c < 1 , , : @ &.t X $ % & * y ~.T.!.].@X*X=X*X*X(.Y.XXLXUXnXU D U U D W.].!.R.N E.: N `.X.X. X",
"g 8.8.n.<.:.:.>.,.M.N.V.N.N.N.K.Z.c 9 5 5 5 = s -.e * 9 * * e f ( {.{.=X*X9XeXeXXX`.VXUXPXa.3 7 v v D G b R.k k h   m E.].`.+. X",
"4.8.8.<.<.,.M.M.K.K.V.V.m.1.N.B.7.D ) o * 5 Y ;.;.f d d d f f z.l.uX=X)..XLXgXuXuXLXLX@.    , @ j N v S 7 n n R.!.E.R.R.Q.].].[.",
"g 8.n.n.M.M.M.M.m.n.Z.KXZ.n.N.M.-.0 & [ 2X-X-X2.~ W ` f f z.z.l.v.*X).zXgXgXhXgXiXX.=   o ; , O o h h 5 7 - k R.!.!.E.B }. X1XmX",
"g 8.<.,.,.M.B.K.I.KXpXyXx.c.A.N.8.t  .3XeX9X-X~ V : l ! O.z.l.c.3X).hXhXhXfXgX X- j b X.yXuX|.X.v ; : k 5 < = j k n N X.X. X1X1X",
"=.n.<.1.N.B.Z.pXpXpXpXyXv.v.x.c.e 9.3X3X-X).Q .       : Q (.c. X/.XXfXfXhXuXX O c ^ yXgXgXuXX.b 5 5 ; h : - = k E.!.E.!.W.R.Q.Q.",
"=.N.N.B.B.b.x.yXiXyXv.v.v.c.f 9 } 3X.X*X)./.-   + . .     M )./.XXXXfX( b 1 : c c '.uX|.^ < < < 5 5 ; + o = k n R.m m Q.!.R.R.B ",
"g ;.-.#.$.$.8 ^ / ^ ^ / / ..` f VX}.B (.)./.M - - @ + o   5 /.(.'.'.'.'.5 - 8 = `.'.( 5 < 5 5 5 5 5 1 + . o h j : ; B X.1X1X1Xs.",
"g g t $ -.,.-.a d / v.yX/ @.` / '.! B B (.9X/.- 1 > - -   Q (.W.( '.b ( c , . c ( c > - 1 < < < 1 5 > + O h n j X.s.s.D.H.H.G.D.",
"=.;.;.<.#.:.1.&.8 / yXv.8 8 ^ ^ '.B b B (.).).~.; l 5 > o Q ! l ( ( ,     o , c , - > - - < - < < < - . : n R.E.!..XVXnX1X1XG.S.",
"g =.;.;.r r #.w p / yXv.d d b |.( B b l M ~.).).M ; l 5 > l l , c j = = o = , , = - - - I I 7 - - - @ . : k n R.Q.Q.Q.Q.Q.Q. X X",
"g 4.=.g t r $ X $ d / / / / c 8 8 c b l l M ~.OX).M ; 5 3 > > = , = = = = , = + = - - - 1 7 v 1 @ + o = j b +.mXmXmXBXs.@.+. XB ",
"g =.;.-.&.#.r % $ $   O 8 8 ; . . , j l - - l ~./.OX~.l ; - + + o o o + + + + + + + @ - = + + + + o . : h X.mXZXFXCXMXH.G.D.1Xs.",
"g =.&.&.*.#.t e % % e t w X   . o o O = , - - > l ~.^.^.~.~.M   o .     . . o o o o + + @ + + = o ; : j +.mXZXNXmXMXMXG.S.a.Q.}.",
"g *.*.*.*.*.s r t #.w e q X q r & . .   o o o - - = h T.T.^.^.h   o @ .       . . o + @ @ @ 1 # - h n mXFXZXCXNXBXMXG.G.S.s.O.X.",
"a g g g *.*.g s t t $ % q t t &.#.X .       .     o = = = j M l   #     o   X .   @ o   O O   = : X.mXNXCXCXNXMXMXH.G.S.j.h.s.O.",
"a s s g g g =.=.s w r w r w q q e %           # X       #           ) 9 ; ;     X     0 e.D.e...mXGXZXCXNXMXH.MXG.G.S.j.g.i.y.w.",
"a s s s _ ` *.&.*.#.w q w q q r r & . $ X         X @ .   o p s.NXe.D.BX: O 9 9   @.BXBXGXGXBXJXmXBXDXZXMXMXH.G.G.S.S.g.i.u.r.6.",
"p a R s _ } ` *.*.*.r e a % q w q q q % $ $ X ` )       ` H.GXGXJXJXJXJXBXmXBX: | GXGXJXHXGXDXFXDXZXZXMXMXG.G.G.S.S.g.d.u.t.w.6.",
"i H P _ ` 4.*.g [  .4.4.r.4.` 5.` *.r.4.5.j.g.MXMXh.p.D.GXHXHXHXHXHXJXHXJXJXmXO DXJXHXHXHXGXGXZXFXCXCXMXMXG.G.S.j.g.d.u.t.w.6. .",
"0 H H s &.s R ' | | 5.6.e.t.y.i.d.d.S.S.S.H.MXMXMXMXCXZXFXZXZXHXHXHXHXJXHXJX@.| JXHXHXGXGXFXFXZXCXMXMXH.G.G.S.j.g.i.u.y.w.9.6.} ",
"0 D H a a P ] ' [ [  . .6.w.r.y.u.i.i.j.S.G.G.G.MXMXMXCXZXZXFXFXFXFXHXHXHXJXmXBXHXFXFXFXFXZXZXCXMXMXG.G.G.S.j.g.d.i.t.e.9.6. .] ",
"0 i D G K P R R ' [ [ | | 5.w.r.u.i.d.g.j.S.S.G.G.H.H.MXCXCXZXZXFXFXFXFXFXHXBXNXHXFXFXZXZXCXCXMXH.G.G.S.S.j.h.i.u.y.e.w.6. .} ] ",
"7 7 i i H K P R R ' [ [ | | 6.w.r.t.u.i.d.g.S.S.S.G.G.G.H.MXCXCXCXZXZXFXZXFXmXNXFXZXZXCXCXCXMXH.G.G.S.S.h.g.d.i.y.r.w.9. .| ] ] ",
"1 7 i i D H K P R R ' [ [  .6.6.w.r.t.y.u.d.g.j.S.S.G.G.G.G.H.MXCXCXCXCXCXFXD.BXFXCXCXCXMXH.H.G.S.S.j.h.d.i.u.t.r.w.6. . .[ ] T ",
"1 7 7 i D D H H P P R ' [ [ | 5.5.6.w.r.t.u.i.d.g.j.S.S.S.G.G.G.H.MXH.MXCXCXD.mXCXCXMXH.G.G.G.S.S.S.h.d.i.u.t.w.w.6. .| [ ' ' L ",
"1 5 7 7 i i D H K P R R ' ' [ | 5.5.6.w.r.t.u.u.i.d.g.j.S.S.S.G.G.G.G.H.H.MXD.D.CXH.G.G.G.S.S.S.j.h.h.i.u.t.w.w.6. .| [ ' ' T K ",
"1 5 6 7 i i i D H H K P R ' ' [ [ | 5.5.6.w.r.t.u.u.i.d.h.j.S.S.S.G.G.G.G.H.s.D.H.G.G.S.S.S.j.g.d.i.u.t.r.w.9.6. . .[ ' ' E L J ",
"1 5 6 7 7 i i i D H H P P R _ ' [ [  . .5.6.w.r.t.t.u.i.i.d.h.j.S.S.S.S.S.G.p.s.G.S.S.j.h.d.d.i.u.t.r.w.6.6. . .} [ ' ' E L K D ",
"1 3 5 6 6 7 7 i i D D H K P R R ' ' [ [  . .5.6.6.w.r.t.u.i.i.i.g.h.j.j.j.S.a.p.j.j.h.d.i.i.u.t.t.w.6.6.5. .[ [ [ ' _ E T L J S ",
"; < 3 5 5 7 7 7 i i D H H P P P E _ ' ' [ [ | | 6.6.w.w.r.t.t.u.u.i.i.i.p.h.e.a.h.i.i.u.t.t.r.w.6.6.6.6.| [ [ ] ' _ E T L K D S ",
"; - < 3 5 5 6 7 7 i i D D H K P T E R _ ' [ [ |  . .6.6.9.w.w.w.r.t.u.u.u.i.e.e.u.y.t.r.r.w.w.6.6.6. . .[ [ ' ' ' E T L K J D v ",
"; @ ; 1 1 1 1 1 1 5 7 7 0 0 0 i i i p p H p P P P _ _ _ _ _ _ ` ` ` ` ` ` | _ _ | ` ` ` ` _ _ _ _ _ ) P P P p H p p i i 0 0 7 1 "
};
