/* XPM */
static char *_96bfa51a0a34ca898d1fcbc6e6d5fb2ETjzyRReK9LLB7tA[] = {
/* columns rows colors chars-per-pixel */
"64 64 256 2 ",
"   c #000000",
".  c #02000A",
"X  c #01001A",
"o  c #13001B",
"O  c #02241B",
"+  c #000023",
"@  c #04022B",
"#  c #1B082C",
"$  c #1C132E",
"%  c #000039",
"&  c #111034",
"*  c #2C072F",
"=  c #23152E",
"-  c #261534",
";  c #271735",
":  c #2A1A35",
">  c #2C1C3B",
",  c #341B3A",
"<  c #0C253A",
"1  c #2B233A",
"2  c #33233D",
"3  c #36273D",
"4  c #3A3336",
"5  c #500D36",
"6  c #6A0737",
"7  c #4F292D",
"8  c #6A3235",
"9  c #335A30",
"0  c #5B5D2D",
"q  c #4E4F35",
"w  c #10334C",
"e  c #1E2751",
"r  c #372641",
"t  c #3B2C42",
"y  c #293047",
"u  c #393746",
"i  c #541048",
"p  c #721848",
"a  c #552C47",
"s  c #453947",
"d  c #6D2F4B",
"f  c #78284C",
"g  c #054F58",
"h  c #274955",
"j  c #2F5056",
"k  c #3A6E56",
"l  c #064E66",
"z  c #2B5767",
"x  c #0B6B6E",
"c  c #34676A",
"v  c #326D70",
"b  c #4C444C",
"n  c #4C494E",
"m  c #534D52",
"M  c #4D5051",
"N  c #555253",
"B  c #5A5857",
"V  c #5C5A56",
"C  c #744E50",
"Z  c #625C5A",
"A  c #51645A",
"S  c #6C6F53",
"D  c #64635B",
"F  c #63685C",
"G  c #6A6A5D",
"H  c #625D60",
"J  c #4D716A",
"K  c #676764",
"L  c #6D6D61",
"P  c #6E7169",
"I  c #737464",
"U  c #787967",
"Y  c #7B7D6A",
"T  c #840E3C",
"R  c #862E2D",
"E  c #AE3532",
"W  c #A55032",
"Q  c #8F6835",
"!  c #B6733A",
"~  c #CB5538",
"^  c #D07039",
"/  c #E67338",
"(  c #8E124D",
")  c #B3044E",
"_  c #912D4F",
"`  c #A72A59",
"'  c #B52C5C",
"]  c #A93557",
"[  c #B8345B",
"{  c #B81E62",
"}  c #B82E61",
"|  c #BA3361",
" . c #CA084E",
".. c #C82958",
"X. c #C7355A",
"o. c #D03453",
"O. c #D41464",
"+. c #CE2B63",
"@. c #CA3463",
"#. c #D73666",
"$. c #964D49",
"%. c #B6484A",
"&. c #93734D",
"*. c #B6714A",
"=. c #905A6A",
"-. c #AC4F68",
";. c #897371",
":. c #B17175",
">. c #CE4D53",
",. c #D06E4A",
"<. c #D77945",
"1. c #CD4F68",
"2. c #D0726C",
"3. c #2E9837",
"4. c #739A34",
"5. c #19867B",
"6. c #69A65C",
"7. c #4B887B",
"8. c #7D816C",
"9. c #6F8D74",
"0. c #A2923B",
"q. c #CB8B37",
"w. c #E39237",
"e. c #D1A12C",
"r. c #E8AE37",
"t. c #EACD3C",
"y. c #938E51",
"u. c #AF9453",
"i. c #81B142",
"p. c #B8B054",
"a. c #82846D",
"s. c #88896D",
"d. c #858675",
"f. c #868A72",
"g. c #8A8D73",
"h. c #8D9175",
"j. c #8C967A",
"k. c #909271",
"l. c #929576",
"z. c #92957A",
"x. c #969879",
"c. c #969A7A",
"v. c #9A9D7C",
"b. c #B1946D",
"n. c #9DA17E",
"m. c #94B072",
"M. c #AFAC76",
"N. c #D98747",
"B. c #CD934A",
"V. c #D99649",
"C. c #E58A45",
"Z. c #E79946",
"A. c #E39253",
"S. c #CFAD4E",
"D. c #EAA747",
"F. c #EAB648",
"G. c #F2BA49",
"H. c #E9B855",
"J. c #D0916E",
"K. c #E09063",
"L. c #D3AD6F",
"P. c #E6B46F",
"I. c #A4CD5B",
"U. c #CAC655",
"Y. c #EAC74A",
"T. c #F4C64B",
"R. c #EFD053",
"E. c #F8E852",
"W. c #D6C66F",
"Q. c #E7C86A",
"!. c #ECCF72",
"~. c #F7E176",
"^. c #357684",
"/. c #457E87",
"(. c #976E90",
"). c #34918F",
"_. c #26969B",
"`. c #448986",
"'. c #4B948B",
"]. c #489799",
"[. c #6D9889",
"{. c #58A48D",
"}. c #6CAB92",
"|. c #4B9BA3",
" X c #52A9AA",
".X c #76ADA2",
"XX c #968A82",
"oX c #9B9C82",
"OX c #B28F8A",
"+X c #9DA282",
"@X c #95AE87",
"#X c #8FB391",
"$X c #A2A583",
"%X c #A5A986",
"&X c #A7AB89",
"*X c #AAAE8A",
"=X c #ADB28C",
"-X c #B1B68E",
";X c #B5B98F",
":X c #ADAF93",
">X c #B2B691",
",X c #B5BA92",
"<X c #BBBD94",
"1X c #BCBB99",
"2X c #91BCA0",
"3X c #AEB8A5",
"4X c #C89390",
"5X c #CEAE97",
"6X c #E3BF81",
"7X c #C8B7A3",
"8X c #D9B9A7",
"9X c #BBC689",
"0X c #BBC297",
"qX c #BDC199",
"wX c #97C5A7",
"eX c #B7C8A9",
"rX c #B4CDAE",
"tX c #C4C599",
"yX c #C4C49B",
"uX c #CACA9D",
"iX c #D6D193",
"pX c #EDD38B",
"aX c #E9D696",
"sX c #F4E496",
"dX c #C8C7A7",
"fX c #C6C9A2",
"gX c #CCCCA3",
"hX c #D5CAA8",
"jX c #CCD3A9",
"kX c #D3D2A6",
"lX c #D5D4AB",
"zX c #D9D6AD",
"xX c #DADAAD",
"cX c #D4C8B1",
"vX c #C8D8B4",
"bX c #D6D9B4",
"nX c #DCDDB2",
"mX c #E5CEB1",
"MX c #E2DCB4",
"NX c #E7DAB8",
"BX c #D3E3B5",
"VX c #DBE2BA",
"CX c #F6E8A7",
"ZX c #E2E2B5",
"AX c #E4E4BA",
"SX c #EAE4BC",
"DX c #E8E9BE",
"FX c #F5E9B9",
"GX c #F9F1B3",
"HX c #E1D8C2",
"JX c #D6E6C5",
"KX c #E8E6C4",
"LX c #EDEBC1",
"PX c #F3EAC6",
"IX c #F8F6C7",
"UX c #F1F3CC",
/* pixels */
"1 - - - - - : - - > > > - 1 y - > > > > 2 2 > > 2 > > 2 r & % 8 *.,.>.%.%.>.%.3 > , : > > > > > > : - : : - - - - - - - - - - ; ",
"1 - - - - : : : : - - * y c c y > 2 2 2 r 2 r r 2 2 3 r % C *.N.N.N.,.>.%._ 8 < 2 2 r > r 2 2 2 > > > > : : : - - - - - - - - - ",
"1 - - : : > > > 1 h z z c c z h 2 2 2 , 2 2 2 2 2 t & C *.N.C.N.N.V.N.~ %.< < d f 2 < r r r 1 2 r > > > > > > - - - : - - - - ; ",
"2 - - > > > r , y v v v c c h y 2 2 r u r r 3 2 3 t < *.Z.V.V.V.Z.Z.N.,.,.$.< d p a f a 1 r a r r a a 2 r > > > > > > - ; ; - ; ",
"r : > 2 2 2 r 2 y j c z w h h y t t j z h t t s s 3 *.N.N.N.N.<.N.<.,.$._ C t t q f ` a < f ` d 1 a r 1 < r 2 2 2 2 > > - - - - ",
"2 > 2 2 2 r 3 t t t u y y < w h u u u h j u u n V M *.<.N.N.C.C.N.<.,.$.C b m N.A.C < s u a d a t t r d d r 1 3 3 2 2 2 > > - : ",
"r 2 2 3 t t t s s s s s u u u b b j c J B n z j h w &.C.C.C.D.D.C.C.C.C.C.N.*.,.,._ u b s u u u s u a ' @.| _ t t t 3 r 2 2 > > ",
"t r t t s s s s b b b n n n m N n M v c j z w h M N B.G.D.D.D.Z.Z.D.Z.Z.Z.C.<.f ( | | [ | ] a _ ] a d ' @.@.` a u s t t t 3 2 2 ",
"s t s s s b b n n n m M B Z B B F B M M c F y.S.S.D.F.G.G.G.D.C.C.C.Z.Z.C.Z.,.( [ @.#.@.@.' p ( _ d d ( ( p a b b s s s s t t 2 ",
"s s s b n m m N M M A v J y.G A P L L K F S.T.T.R.R.T.G.D.D.D.C.>.^ Z.Z.N.Z.<.) [ X.#.@.` _ ` C B ] ' f t m N N m m n b s s s t ",
"s s n m N B V A A A A k G G P J 9.k.k.u.R.R.T.R.E.R.G.G.D.D.D.F.D.D.C./ C.Z.,.>.X.[ X.@.' ` ` =.$.' } ] L A D V B M N m n b s s ",
"n n N B V D G G G F G P 9.[.`.`.).7.9.l.p.S.F.r.w.F.F.G.D.N.D.G.T.D.A.K.N.N.>.>.X.X.X.1.X.-.-.=._ ( | } ] -.=.L C C Z B B m n s ",
"m N B V D G J J I I J `.].|.7.z 7.'.`.).).5.9.L.sXQ.T.F.G.Y.F.R.T.F.CXIXpX~ >...o.1.1...{ -.-.-.@.@.| ` ` ..` _ } ] D F Z B N n ",
"B B Z F L P v J U P 9.c g x x x x 5._.'.'.).2XIXGXQ.r.R.T.G.G.T.T.H.pXsXP.A.P.1.o.>.X.2.J.2.1.#.#.| _ _ f a p | #.| =.P D D B N ",
"V D G I U U J 9.8.8.h.8.&XvXbXVXbX0XrXLXDX}.{.9XP.D.H.T.D.H.G.Q.sX!.r.r.w.pXCXL.>.>.o.2.K.J.2.+.` p -.:.f.;._ ' 1.+.-.U I G D V ",
"D G I U 8.s.9.'.[.[.[.).jXIXIXIXIXGXGXGXCXM.5.{.m.!.H.D.w.!.sXR.R.Y.R.Q.R.~.pXGXFX4X .+.O.) ..#.@.| +.:.&Xc.C i 6 _ ;.f.U I G V ",
"K G U 8.f.l.j.9.J v ).).7.AXIXFXCXaXu.S.H.aXjXkXm.i.S.S.Y.Q.!.Y.T.Y.sXCXQ.r.P.CXCXP.%.' ] _ | #.#.#...-.OX%X+Xg.Y f.l.g.s.Y I D ",
"L I 8.f.h.c.$X+Xj.j.9.J x @X0Xj.9.'.7.m.W.iXaXCXZXtXiXW.U.p.!.!.H.F.Q.~.K.^ <.<.N.,.1.@.#.| ' #.#.#.@.O.1.>X=X*X&X$Xv.l.g.a.I G ",
"I U a.h.c.n.%X+X+X&X[.x `.)._._.). X{.}.6.iXFXIXIXaXsXsXU.U.L.Q.GX!.G.~.Q.K.6X>. .X...X.X.@.X.` ' @.#. .:.7X;X-X*X$Xn.v.l.s.Y I ",
"U 8.f.z.v.$X&X=X,X#Xv J J ]. X X].'.'.}.BXIXIXCX!.P.pXpXp.U.B.r.~.pXT.w.L.CXL.>.>.>.X.' [ [ @.` i p ( =.,XtX<X,X-X*X$Xn.c.k.a.U ",
"Y a.h.c.+X&X=X-X,X0X0XeX2XJ `.].].'.^.5.wXkXS.Q.GXIXaXq.S.pXsXCXsXQ.F.^ !.iX .>.>.>.%.` f p i * i : _ 4XuXtXtX<X<X=X*X$Xn.l.s.Y ",
"8.f.z.+X$X*X=X,X<XtXfXgXjXJ g J '.].`.[.{.7.6.9XGXFXCXaXL.CXGXCXaXF.H.H.~.sX2.o.>.2.%.6 2 , , i i 5 ( ) OXgXuXtX<X;X=X$X+Xc.h.8.",
"d.h.c.+X&X=X>X<XtXuXgXgXjX:XA g v j c `.'.}.}.'.s.iXCXCXaXFXsXGXGXsX~.H.H.D.,.,.S.!.L.5 # 5 * @ . m L 5XkXuX5XtX0X<X-X*X%Xv.l.f.",
"f.h.oX%X*X-X,XtXtXuXgXkXkXnXbXJ h j y z c 7.}.{.#X@X0.pXsXP.aXIXIXCX<.<.H.N.>.*.R.~.L.a a 6 OXdX7XzXzXzXxXgX4XuXtX<X>X=X*X+Xz.f.",
"h.c.+X&X=X,X<XtXuXgXkXkXxXxXAX3X_.`.g . h v 7.'.0X9Xy.p.6X!.CXIXCXN.%.! D.~ ] ( *.b.8 =.cX8XNXSXMXnXMX5X8XlXkXgXtXqX,X-X*X$Xc.g.",
"j.v.$X*X>X<XtXuXuXkXkXlXnXvXVXBX[.c A j + j c v 5.6.y.7 L.aXCXIXaX~ ,.P.aXJ.E _ 5     :.NXDXmXhXMXMXMX5XhXVXgXgXfXqX<X,X=X&Xv.h.",
"z.n.&X=X,X<XtXuXgXkXlXxXnXbXnXVXAXbXVXVX3X@ y z 9.BXGX*X0 Q L.J.%.<.Z.pXGXP.T 5 ;.:Xb.mXLXSXmXAXAXAXMXAXMXhXlXkXgXfXqX,X>X&X+Xz.",
"v.n.*X=X,XtXuXgXgXkXxXnXnXAXnXvXDXLXDXLXvX[.P w 9.uXGXaX&.Q V.N.^ Z.D.V.*.$.6 * =.NXSXSXSXxXSXDXAXAXAXmX` | hXlXgXfXtX<X>X*X+Xz.",
"oX+X*X>X<XtXuXgXkXxXxXnXZXAXDXDXAXDXLXLXPXUX3XX % w k.L.p.y.&.B.V.D.D.%.( f 6 f 4XmXPXSXMXDXLXLXSXAXAXhXb.hXnXlXjXgXtX0X>X=X$Xc.",
"oX$X=X>X1XtXgXgXlXxXnXZXZXAXSXSXLXLXLXLXLXPXAXrXrXP % U !.S.Q $.N.H.,._ _ 6 6 4XIXIXPXLXLXLXLXLXLXAXAXAXSXZXnXzXkXgXfXqX,X=X&Xv.",
"+X&X=X,XqXtXgXkXxXxXnXZXZXAXAXLXLXLXLXLXPXLXIXIXJXvX8.  tXsX&.6 V.V._ ( f =.4XPXIXPXPXPXPXLXLXLXDXDXDXAXAXMXnXnXkXjXgXtX1X>X&Xv.",
"$X*X-X<XtXuXgXkXxXnXMXZXAXAXAXAXDXKXKXLXSXSXUXUXJXJXeX  d.*X4 6 V.*.p _ OXHXKXPXPXLXPXPXPXPXLXLXAXSXAXAXAXMXnXnXlXhXfXtX1X>X*X+X",
"$X=X,X<XtXgXgXlXxXnXnXVXVXAXPXUXDXvXVXUXUXUXUXUXUXUXeXh   % 3 8 V.$.6 =.8X8XIXPXPXIXIXPXNXSXPXSXPXSXhXAXAXAXnXnXhXuXgXtX1X,X*X+X",
"$X*X,X<X<XfXgXlXlXnXnXbXrXVXeXeXKXVXBXvXVXDXAXKXKXUXJX[.& h s $.N.8 7 6 OXPXPXPXKXNXPXPXmXPXmXmXmXNXNXNXAXNXnXnXnXkXuXtX1X,X*X+X",
"$X*X,X0XtXqXeXxXbXbXnXrX.XJXeX}.rXrX2X9.@Xm.6.m.xXLXJX.X% + % * 6 # + * ;.PXPXaX!.W.L.5XhXmX4XmX4X8XNXSXMXMXMXnX5X5XgXtX1X,X*X+X",
"$X*X,X,X>XqXfXfXjXnXbXrXrXVXrXwX9.J }.}.k 3.6.6.I.I.I.I.p.p.p.p.p.S.p.y.L.pXQ.Y.t.E.E.t.Y.Y.C (.=.OXSXSXNXMXMX8X:.4XgXtX<X,X*X+X",
"%X=X>X>XqXgXgXeXeXvXnXAXVXvXrX#X`.|. X X7.J k 3.6.i.4.4.I.U.U.E.E.Y.F.! q.q.W W F.Y.B.,.V.E.E.u.@ =.7XSXNXzXhXhXnXkXuXtXqX>X*X+X",
"$X*X,X0XuXgXjXzXnXnXbXbXBXvX2X[.).|.^.j k w z e O F - q y.S 0.S.S.! ^ S.B.^ ^ Y.E.E.0.6 ! R.E.E.L.OXOXhXzXMXAXnXlXgXgXtXqX>X*X+X",
"$X*X>X0XtXgXkXlXnXnXAXSXnXBX#X).|.j 9 9 9 4.0 A h + @ q 0 = 8 S.F.^ E Q W ~ r.m.|.m.t.Y.t.b.(.J.R.b.8XNXAXAXzXhXhXhXgXtX0X>X*X+X",
"$X*X>X0XqXfXgXlXnXnXjXbXnXVXrX X Xk 9 k i.6.9 A z @ + S y.4 X Q q.~ E u.! E e.u.w &.S.Y.E.u.i i Y.S.7XNXNXMXzXzXzXkXgXtXqX>X*X+X",
"$X&X>X<XtXgXgXlXxXnXbXVXAXBX.Xv  X`.X 9 i.q . @ 4 q # O q 4 + B.G.~ E R R E ~ w.r.r.0.3.4.Y.t.Y.T.S.mXmXSXMXnXnXzXkXgXtX1X>X&X+X",
"$X&X>X<XtXgXgXlXxXnXZXAXAXrX Xz h ].].z e e < s.b.u.b.$.5 @ @ S.S.8 6 ! V.B.B.N.q.D.u.0 Q Y.R.D.^ r.CXKXAXAXnXxXlXkXgXtX1X>X&XoX",
"+X&X-X,XtXgXgXkXxXnXnXZXLXwX].|.v < h z j l /.M.!.Q.Q.J.} p @ + + + Q S.L.Q.Q.P.S.V./ N.B.N.E ~ C./ P.LXZXZXnXnXlXjXgXtX<X>X&Xv.",
"+X&X=X,XqXfXgXkXlXxXnXAXJX{.).].|.^.      ^./.8 y.y.&.V _ ' - & - * %.8 S u.u.y.S B.>.) T )  .>.o. .C.NXAXnXnXzXlXjXfXtX,X=X%Xv.",
"+X%X=X,XqXtXgXkXlXnXnXDXeX^.].|.^.z # - # y y % X X + 5 ` _ # @ # # ` ` * X + @ _ [ T _ _ ] o.....X. .5XDXnXnXzXkXgXfXqX,X=X$Xc.",
"v.$X=X>X<XtXfXgXkXnXnXVX.Xl c v & o # # # # = 1 3 : : , , $ # # # # @ 5 7 = : a f d @ _ _ 8 ..o.X.X. .2.NXnXxXlXgXfXtX1X>X*X+Xz.",
"c.+X&X>X<XqXtXgXkXlXMXvXJ w # o # $ # # # - X     # - - $ = - # # # # @ @ = = .   + : # 6 ( ` X.o.o.o...hXVXzXkXgXfXtX<X>X&X+Xz.",
"c.+X&X=X,X<XtXgXgXkXZX3Xg + - $ # # # $ $ + B d.K @     + + X - $ # = : 1 $ X H ;.s   $ = * 5 ` ..X.o. .5XVXkXkXgXfX1X,X=X%Xv.h.",
"z.oX&X=X>X<XtXtXgXkXZXoX. # = # # # # 1   ;.KXAXHX&XB K u N P X + - $ .     XXNXmXNXXX  : $ # , ( ' X. .4XnXkXgXgXtX<X-X*X$Xc.g.",
"j.c.$X&X=X,X<XtXuXgXxX;.. - # # # # :   Z bXDXAXbXdXcX3X:XcXcXH # . + L ;.B ;.mXmXSXNXd.  1 - @ @ 5 _ ) :.zXkXgXuXqX,X=X&X+Xz.f.",
"g.z.+X&X=X>X<XtXtXuXlXU . - # # # 1   B bXAXnXAXrX3XvXjXdXbXbX:X3Xd.1XcX8X5X1XhXzXZXZXMXU   1 - # @ $ 5 I lXgXuXtX<X,X=X&Xv.l.a.",
"f.h.v.$X*X=X,X<XtXtXlXz.  $ 1 1 1   N lXZXnXZXMXbXvXeXdXdXlXnXdXlXdXcX7XmX8XNXAXZXZXnXZXbXP   $ 1 1 :   d.kXtXtXtX,X-X*X$Xc.g.a.",
"d.g.c.+X&X*X-X;X<XtXuXgXI         P kXxXzXnXnXnXZXbXeXfXdXzXZX7XlXdXgXgXmX5XhXZXnXnXnXlXnXzXd.        Z fXuXtXtX,X-X*X%X+Xc.g.Y ",
"8.s.l.v.$X&X=X-X<XtXtXuXgX*Xd.d.:XzXxXlXlXlXxXxXlXxXnXAXfXjXMXdXlX7XMXnX8X5XhXxXxXxXxXxXlXzXxX1Xz.f.&XfXgXtX<X<X-X=X$Xn.v.h.s.U ",
"Y a.h.c.v.$X&X=X-X<X<X<XtXfXfXfXfXtXtXgXgXkXlXlXzXzXkXnX&X1XnX:XdX7XnXbX5XhXnXkXzXlXlXkXjXgXuXgXfXfXfXtX1X<X,X>X=X&Xn.v.l.g.8.I ",
"U Y g.h.c.n.$X&X*X+Xz.a.L m r $ @ - s Z U j.$X,XtXgXgXkXkXkXzX&X1X1XkXgXkXhXkXgXtX>X+Xf.K m 3 @ @ 1 b D Y j.+X*X$Xn.v.c.g.a.U L ",
"I U a.g.h.c.n.$X$X$X$X+Xc.z.z.z.z.z.c.oX$X&X=X<XtXuXgXgXgXgXgXlXuX1XgXgXkXgXgXgXtX,X*X$XoXoXz.z.z.z.z.c.oX$X&X$Xn.v.l.g.s.Y I D ",
"L I Y a.g.l.c.v.n.$X&X*X=X-X,X,X1XqXtXtXtXtXtXtXtXtXtXtXuXuXuXuX,Xd.gXuXuXuXtXtXtXtXtXtXtXtXtX1X1X,X,X-X=X&X$Xn.c.l.g.s.Y U L D ",
"K L U Y a.s.g.l.c.c.v.n.n.$X$X&X*X*X=X-X-X;X,X<X,X<X<X<XtXtXtXtX<X&XtX7XtXtX<X<X<X<X,X>X>X=X=X*X&X&X$X$Xn.v.c.l.h.g.a.Y U I D V ",
"D G I I U 8.a.s.g.h.h.l.c.v.n.n.$X$X&X&X*X*X=X=X-X-X>X,X,X,X,X,X<X<X,X,X,X,X>X>X-X=X=X*X*X*X&X$X$X$Xv.c.c.z.g.g.s.8.U I L D Z B ",
"Z D G G I I U Y a.a.f.g.g.h.l.c.c.v.v.n.$X$X$X&X&X&X*X*X*X=X*X=X=X=X=X=X=X=X*X*X&X&X&X$Xn.n.oXv.c.c.l.h.g.f.a.8.U I I L G D V m ",
"V B D D G G L I I U Y a.a.s.s.g.h.l.l.c.c.v.v.v.v.+X$X$X$X$X$X$X$X$X$X$X$X$X$X$X$X+Xn.v.v.v.c.l.h.g.g.s.a.Y U I L L G D Z V N n ",
"N m V V Z D D D G G I I U U Y 8.a.a.s.g.g.g.h.h.l.c.c.c.v.v.v.v.v.v.v.v.v.c.c.c.c.z.l.h.h.g.f.s.a.8.Y Y I I L K D D Z V B N n s ",
"n n m m V V V D D D G G L I I U U U Y Y Y 8.a.d.f.f.f.g.g.h.h.h.h.h.h.h.h.g.g.f.f.d.d.8.Y Y Y Y U I I I L G D D Z V V N m n b s "
};
