/* XPM */
static char *_68b731d23754415d11fe272db4ba29edvn37u5sREgnytzu[] = {
/* columns rows colors chars-per-pixel */
"64 64 256 2 ",
"   c #010101",
".  c #0B0303",
"X  c #050A03",
"o  c #03030B",
"O  c #0B030B",
"+  c #070A08",
"@  c #0B0C0B",
"#  c #160706",
"$  c #0A1607",
"%  c #15160C",
"&  c #030314",
"*  c #0A0816",
"=  c #04041B",
"-  c #150718",
";  c #0D1416",
":  c #171816",
">  c #260404",
",  c #340808",
"<  c #29140A",
"1  c #281B15",
"2  c #351313",
"3  c #0A2E04",
"4  c #14250B",
"5  c #182814",
"6  c #1C3616",
"7  c #282819",
"8  c #36291A",
"9  c #263414",
"0  c #050527",
"q  c #16072A",
"w  c #0C1227",
"e  c #161927",
"r  c #080738",
"t  c #120F34",
"y  c #161B36",
"u  c #230929",
"i  c #340B39",
"p  c #2D1133",
"a  c #1B222F",
"s  c #382526",
"d  c #2E2D31",
"f  c #4A110D",
"g  c #4E2915",
"h  c #722915",
"j  c #4F1722",
"k  c #562827",
"l  c #4A322C",
"z  c #593935",
"x  c #683B30",
"c  c #1A4511",
"v  c #254A1C",
"b  c #2C4F19",
"n  c #366C1D",
"m  c #2F522A",
"M  c #366728",
"N  c #3C7629",
"B  c #3C6834",
"V  c #494C16",
"C  c #584538",
"Z  c #4E5531",
"A  c #6E522E",
"S  c #6B4538",
"D  c #734A39",
"F  c #486F33",
"G  c #6B6F37",
"H  c #020248",
"J  c #151A46",
"K  c #121150",
"L  c #33104D",
"P  c #182545",
"I  c #102555",
"U  c #2E304E",
"Y  c #2A3858",
"T  c #080B68",
"R  c #020175",
"E  c #320C67",
"W  c #17286C",
"Q  c #2C3B6C",
"!  c #491352",
"~  c #48334C",
"^  c #56126C",
"/  c #64196C",
"(  c #6A1975",
")  c #502472",
"_  c #6E2472",
"`  c #384357",
"'  c #32496E",
"]  c #504B51",
"[  c #70544C",
"{  c #5A7B4B",
"}  c #73704A",
"|  c #4C566F",
" . c #705669",
".. c #586676",
"X. c #77676F",
"o. c #8E3824",
"O. c #8D4C32",
"+. c #A85435",
"@. c #8F6D30",
"#. c #B16B37",
"$. c #8B554F",
"%. c #AC5848",
"&. c #886654",
"*. c #926F54",
"=. c #AC6D53",
"-. c #875F67",
";. c #8F716E",
":. c #AF706C",
">. c #C97255",
",. c #D27B62",
"<. c #478837",
"1. c #518F36",
"2. c #4C9637",
"3. c #698F3A",
"4. c #57AA3D",
"5. c #5FC73F",
"6. c #518E47",
"7. c #589946",
"8. c #698E4F",
"9. c #769457",
"0. c #5AAD4A",
"q. c #6BAA59",
"w. c #68B353",
"e. c #71A36E",
"r. c #66C556",
"t. c #67CF52",
"y. c #76E65D",
"u. c #76CA6C",
"i. c #76D765",
"p. c #7AEB70",
"a. c #B1873B",
"s. c #908753",
"d. c #A98B4A",
"f. c #988665",
"g. c #AC8F6D",
"h. c #A5B764",
"j. c #D6975F",
"k. c #D69071",
"l. c #E7AE7B",
"z. c #90D26D",
"x. c #ACCC6A",
"c. c #82F06D",
"v. c #83EA7A",
"b. c #CEC775",
"n. c #E9C37E",
"m. c #010188",
"M. c #000094",
"N. c #192097",
"B. c #2F3191",
"V. c #342FAE",
"C. c #4E0F8F",
"Z. c #73268E",
"A. c #7810AB",
"S. c #5823A0",
"D. c #692DA8",
"F. c #2D4E8D",
"G. c #2D54A1",
"H. c #3C6BAC",
"J. c #635A9D",
"K. c #516B91",
"L. c #707189",
"P. c #4758AD",
"I. c #4D71B0",
"U. c #5646C5",
"Y. c #4552C8",
"T. c #4E76CD",
"R. c #6870DF",
"E. c #930C9B",
"W. c #892693",
"Q. c #8501A9",
"!. c #972FAB",
"~. c #AA31B5",
"^. c #937C91",
"/. c #B14DBB",
"(. c #9664B5",
"). c #A029CD",
"_. c #B537CF",
"`. c #C834D4",
"'. c #D538E5",
"]. c #B24DD4",
"[. c #9E60D8",
"{. c #AE6FE5",
"}. c #C845D7",
"|. c #D348DE",
" X c #C754D4",
".X c #CF6DDA",
"XX c #D749E4",
"oX c #C655E6",
"OX c #D95AE6",
"+X c #E155EE",
"@X c #C964E3",
"#X c #DA68E6",
"$X c #C77CE8",
"%X c #D976E7",
"&X c #E168EC",
"*X c #E379EC",
"=X c #E579F2",
"-X c #63829D",
";X c #5984B7",
":X c #6A8BB4",
">X c #5B91DA",
",X c #7294D1",
"<X c #70A5DD",
"1X c #7292E8",
"2X c #78A7E8",
"3X c #7DB2E9",
"4X c #88888F",
"5X c #9A8587",
"6X c #AC9193",
"7X c #ABAD9A",
"8X c #938DB2",
"9X c #D09391",
"0X c #D6AB95",
"qX c #E9B392",
"wX c #C596A2",
"eX c #D3ABB1",
"rX c #EEB9AC",
"tX c #91DC85",
"yX c #8FEA89",
"uX c #ABF097",
"iX c #B1F8B2",
"pX c #E9C68E",
"aX c #E0E5A6",
"sX c #9493C9",
"dX c #91ADD4",
"fX c #AFB3CD",
"gX c #9291E9",
"hX c #AE93EB",
"jX c #91B4EC",
"kX c #B3AFED",
"lX c #D0A3D3",
"zX c #C888E7",
"xX c #DC89E8",
"cX c #C796EB",
"vX c #D998E9",
"bX c #E385EC",
"nX c #E38CEC",
"mX c #E498EC",
"MX c #E789F2",
"NX c #E997F2",
"BX c #CDADEF",
"VX c #E5A8EC",
"CX c #E6B6EB",
"ZX c #EAA7F3",
"AX c #ECB7F4",
"SX c #F1B5F8",
"DX c #9AC4ED",
"FX c #ABCAF1",
"GX c #BAD6F6",
"HX c #F5D0CE",
"JX c #D0C9EF",
"KX c #D7D3E9",
"LX c #C5D9F6",
"PX c #E8CAF5",
"IX c #EFCEF7",
"UX c #CEE4FC",
/* pixels */
"                                  X b v $ :   + ;   . m M M F <.c 4 $     $ : 9 4                                               ",
"                        6 5         X :   6 5   4 9 $ 5 M N M v 6 4 % : X   X X X                                               ",
"                        % $   X   5 v v 4 6 %   $ 5   4 v c N M       @   5 $ X                                                 ",
"                                4 @ v <.<.M m 6.c N M 4 $   <.r.b v v M 6   6 6 X X                                             ",
"                @ @       X . X N c 6 m M M m u.w.N 7.<.2.0.2.t.r.2.b M 0.N 5 4 5                                               ",
"                  X     X $   M w.b N 4.0.2.2.i.r.<.4.r.t.5.r.t.2.2.N 2.i.0.M   % %                                             ",
"                          X   5 B N 2.2.2.i.y.t.5.t.p.yXuXtXp.yXtXv.p.p.yX6.  5 $     X                                         ",
"                    X   B B   4   2.2.N w.v.yXi.yXiXuXt.yXiXiXiXiXiXyXv.v.v.N 4   B v   $ @ @                                   ",
"                    $   v 6 4   <.r.t.t.c.v.v.u.tX-XB b 4.r.e.e.e.{   B q.u.i.0.0.<.%   : : %                                   ",
"                    - o   6 N N u.c.y.r.q.6.3     3 6.F b N c v 7.7.6   Z 8.tXuXv.4.7.m   X                                     ",
"        X X X   X   5 N 4.0.u.i.z.i.<.m     o $ m m 8.1.{ F 7.e.q.q.q.b   v tXiXq.3 B : $ X   X                                 ",
"            X X $ X 5 M F 1.w.0.2.N X   X 4 $ 5 6   F 8.8.8.7.F M 1.8.Z $ q.tXyX1.  3 M     X X X                               ",
": @                   3 n 3.F $ $ % 9 $ X   X   8.8.9.b 9.8.8.M 6.{   Z { iXiXz.z.1.w.<.  $ X                                   ",
"                X X G b F 3.  %   X       . $   Z { 9.9.9.} 9.9 9.9.Z Z   7XuXx.uXx.F 9 9 X       X :                           ",
"  +         @ :   X 9 9 9 b     7 7 7 1 1 1 : %   Z 3.8.b } } Z G Z Z 8 7   x.x.x.h.V 5 %       . % 7                           ",
"      +           X   4   G G %                 Z } G } } Z s.8.Z 8 Z Z     7 b.b.s.V < Z g & %   .   X   @ +                   ",
"                      g A @.j.d.s.g.*.*.d.g.g.Z } *.> l s.f.f.C } f.7X}   8   } b.d.A   s.A   % <   @ :   @ X                   ",
"                  :   8 A g A a.n.pXpXl.l.aXpX*.} C     # *.;.&.;.g.;.f.[   7   f.pX@.@.d.g < > A 8   # .                       ",
"                  : X X       g @.#.j.a.#.qX0X} &.&.[ C &.A *.8   s   7 f.l   1   0Xl.#.=.g , < 1 1     .       . X             ",
"                        . % #   > #.j.+.#.l.rXg.S A A [ } D S D [   1   l *.<     d 0Xl.j.=.O.    o g       .   s 1   .         ",
"                          X . < h +.#.+.h =.qXqXk.=.=.%.>   } *.g.l   D $.=.*.[ C   [ l.j.j.j.>.+.O.#.O.f %                     ",
"                            . , f f h g f %.o.,.qXrXHXrX=.  8 [ S f 1 S D O.[ } C 2   &.=.=.=.>.,.>.o.h f . #       .           ",
"                            . # # X #   g %.h +.,.k.qXrXrX$.x x &.g.&.S x g   2         z     k *.k.>.h g x <           .       ",
"                          . : ;     @ #   f h %.k.>.,.rXwX$.[ S [ [ $.$.*.  D S x   1 k > &.1 # D :.>.+.%.8 # > , , # . .       ",
"                            .   8 z   .   $.o.h %.=.k.rX;.D ;.]     8 &.:.: z z k   *.[ -.z l     %.%.%.z   2 > > > , , #   .   ",
"                                < z # 1 S =.o.O.$.:.9XrX:.;.5X6X] ] ;.;.;.  s       z ;.-.  s . :.0X%.f   f 2 .     > f , . .   ",
"                              . +   , k k f O.:.9X:.0XHXeX5X5X5X:.;.;.-.  -.-.;.:   .     f j =.9X9X=.f 2 .     . . # , , > # . ",
"                                @ % # > k k j $.9X0XrXHX;.X.5XwX6X[ ;.5X#  .-.;.  z z  .s > $.9X:.$.k > j <       . . > > > , > ",
"                              # #     . z ;.-.6XeXHXHX5Xs s ] 6X5X  ; ^. .  z s s s  . .  l wXeX[ k 2 , # 1 X   . .     . # > , ",
"                                    @ %   [ ^.6XlXeX5X;.    ] ] X.X.% ] 7       ]  .  ] 5XeXwX^.j > j 2 2 l # . . . . O O # # 2 ",
"                  :           @ @ O   U U  .8X^.KX8X  4Xd ] d X.] l ] d a . % +   4XfXKXKXfX8X^.L.] ~ ~ U p - * * * - - O O     ",
"                                o w J | 8XkXJXKXfX4X  L.L.d d 4X|   t U | ..  :   : JXUXfX' 8XL.L.| Y U P J 0 = = = = & o       ",
"                  e a           w ' K.:XsXdXLXJX  L.d * L.w | -X  P J 0 P 8Xd   a   L.UXfXL.K.' ' 0 0 J r t *                   ",
"                  ; :         y I H K.jX,X,XFXLX| ] |   d ] |       0 ` K.L.`   P K ` LXLXdXI.' Y y w = o   o                   ",
"                            X = F.;X,XFXjXjXGXLXdXr | | y ' | ..P Y U ` d     * w 0 K.GXGX,X' y 0 = *       & o +               ",
"                            *   K.I.W :X<XDXGXUX:XI Y K.K.  | 8XY | a     ;     :   dXGXDX<XH.P t ' y o ; :         X X         ",
"                          o o w w     I.jX,XLXGX-X  ` ' ;X' K.K.        o     e   K.UXLXjX>XF.I w | P o X                       ",
"                          o o   ' ;XF.dXFX3XGXGX:X  . a K.I.K.* * o         o . 0 DXLXjXI.H.I 0 y   o X             + @         ",
"                            e & Y K.>X3X<X2XFXUXdX  e     U   ' Y   o       e   :XFXDX;XT.;XI.H.F.P * * & o o       o @         ",
"                        +   e +   Y ' G.G.>XjXFXDX0 . * e %   ' K.  ;     &   I 2X2XDX;XH.H.G.F.Y *       o o o                 ",
"                                ; Y   Q F.T.1X3XDXK.  ;   a e   ' d       ;   :XjX>X>XF.W T =   # @                             ",
"            w       o * &         # & H W B.2XjXDXjXQ   * o o   . a   o   y = dXjX>XG.G.W W H.I   o                             ",
"            w         X & 0 w t I G.P.P.P.>X2X1X1XjXT.R I   o           & W H ,XjXT.N.T.I.I F.K w                               ",
"                          X     W G.P.T.R.Y.1XR.R.jXjXm.J     e d   o   0 N.m.kXFX1X1X1XT.F.  K 0                               ",
"            o         * = H W B.R R M.Y.Y.R.gXgXkXLXkXY.T r H e Q   o o   W M.kXFXgXgX,Xm.W K K X 0 =                           ",
"              o o & & e r R B.P.m.V.Y.1XjXkXJXgXkXJXkXP.R K r t |       & X m.kXkXgXR.R.M.R K J   0 *                           ",
"                  q 0     & R m.H B.R.hXgXkXhXgXkXJXhXV.N.K   = y       o %   sXJXJXkX[.V.V.T F.U   o                           ",
"                            0 T N.U.[.BXhXhX[.gXkXPXBXS.B.U   o           :   8XBXBXkXhXhXhXR.E K t e   o                       ",
"                r 0   o q   E U.S.[.hXBXkXkX{.kXBXPXBXC.  r 0             a   sXBXJXkXhXBXJ.(.(.L q *   o                       ",
"            K E E t   q y   C.D.D.[.{.BXJXhXcXcXBXPXBXC.D.C.q           & L   8XPXJXhXcXhXD.C.) J r E q                         ",
"          o K L L q &   L L   E D.].zXBXcXhXcXcXBXPXBX).[.S.  o         o : 0 8XIXPXBXzXcX{.[.D.S.) r q -   . .                 ",
"                . O * p L E ) [.!.].{.].zXzXzXvXPXPXVX_.A.Z.q   .   .     :   ^.IXCXzXVXVXvX$X].A.D.S.E O     .                 ",
"                    q L i ^ @XoX].%X].$XxX@XoXxXVXIXcXQ.!.) p             :   X.PXvX@XVXVXvXvXzX].).D.L   o       .             ",
"                    - p ( !._.oX@XZXVXvX%X@X@XxXVXIXzXA.Z.L i . O O       -    .IXAX%X@X%X_.%XxX#X_.].Z.u     . O               ",
"                    u ^ ! )._._.}.%XVX%X#X%X}.@XVXAX/.Q._.~.!       -     -    .AXCXVX.XOXOX%XxX%X!.!./ ~ X   O u p u *         ",
"                        ! _.|.`.}.OX#X%XXXbX#X#XmXSX(.Q._.!.W.! i p o     -   ~ ZXbXmXZXxX%XxXxXMX].q   i u   O q L L u         ",
"                O u L ! / Z._.'.#XOXOXnXxXmXbXmXnXnX X).}._.~.( ( ^ i u - #   L xXMXXXOXxXbXnXnXbX#X~.! Z.- O O - - - O         ",
"              o   ! Z.^ !.`.XX#XbX#XOX#XxXZXnXbXSXxX`.=X#XOX%X`.}.].Z.  & p     .X=X'.`.|.&XnXmX*X}.OX/.! u O                   ",
"                q L i ! `.'.#X*XMX#X#XOXXXmXAXCXIXVX~.%X&X+X*X}. XMX/.E._.~.Z.(  XOXXXXXXX+X*XmXbX'.'.~.i - u O +     .         ",
"                ! ! ! ^ W./ }.XX&X*XbX*X#XAXIXIXIXVX'._./.OX|.}. XnXbX*X&X|.~./ ].+X`.XX=X*XbXmX%X'.'.XXW.  - O                 ",
"                p ( W.~.!.~.XX+XOXmXVXAXNXnXZXAXIXZXNX%XE.}.&X%X=XVXNX*X#XXX`.!. X=X%X%XbXNXNXOXXX+XXX`._ i O O                 ",
"              -   ( !.W._.`.#X&X%XmXAXVXnXbXnXIXIXZXNXSX*XOX=X*X&XMXZXnX#X&XOXXX#XZXmX#XbXVX%X&X*X&X!./ / ! u   O               ",
"              O   i / !.}.#X*X=X=XZXSXNXNXNX=XSXIXZX&XMXZXmXMXbX&XXXMXZXMXSXNX|.#XZXVXnXZXZXNXZXNX X^ W.W.i i &   O   .         ",
"        . . X . O - / W. XCXCXVXVXVXPXPXPXIXCXmXVXxX%X|.%XmXCXvXmXxX%XxXmXCXVXOX%XCXIXPXCXCXPXCXCXmX]._.!._ / W.!   - O X X     "
};
